<svg fill="none" height="22.3" viewBox="0 0 363 100" width="65" xmlns="http://www.w3.org/2000/svg"><g fill="#02291c"><path d="m114.769 99.5396c3.607.5184 6.696-.0996 8.559-.4683 1.096-.2192 2.083-.4782 2.93-.7373 1.026-.3188 1.713-1.2853 1.644-2.3615l-.588-8.559c-.09-1.3451-1.315-2.3216-2.661-2.1123-.01 0-.02 0-.029 0-1.455.2192-2.183.3288-3.059.259-.977-.0797-2.292-.1893-3.328-1.1159-1.495-1.3451-1.385-3.4874-1.365-3.876v-77.57912c0-1.65401-1.336-2.98918-2.99-2.98918h-9.286c-1.654 0-2.989 1.33517-2.989 2.98918v81.09642c-.07 1.1359-.339 7.4729 4.215 11.7375 3.078 2.8696 6.875 3.4176 8.947 3.7165z"/><path clip-rule="evenodd" d="m76.707 98.7327h8.9974c2.1024 0 3.5472-2.1024 2.7899-4.0653l-35.4118-91.7578c-.4384-1.15581-1.5543-1.91307-2.7899-1.91307h-11.8869c-1.2356 0-2.3416.75726-2.7899 1.91307l-35.411828 91.7578c-.757258 1.9629.687511 4.0653 2.789898 4.0653h8.70843c1.2356 0 2.3416-.7573 2.7899-1.9131l7.3534-19.051c.0698-.1893.2591-.3189.4683-.3189h43.7815c.2093 0 .3886.1296.4683.3189l7.3534 19.051c.4384 1.1459 1.5544 1.9131 2.7899 1.9131zm-49.1919-35.6111 16.1515-42.1374c.1594-.4285.7672-.4285.9267 0l16.291 42.1374c.1295.3288-.1196.6776-.4683.6776h-32.4326c-.3587 0-.5978-.3488-.4683-.6776z" fill-rule="evenodd"/><path d="m203.976 36.807c5.132-7.0445 13.79-12.6243 25.976-12.6243 17.018 0 26.116 10.7113 26.116 28.9054v42.6456c0 1.654-1.336 2.9892-2.99 2.9892h-9.286c-1.654 0-2.989-1.3352-2.989-2.9892v-41.4699c0-9.396-4.554-15.8526-15.115-15.8526-9.247 0-16.291 5.7193-18.344 14.089v43.2335c0 1.654-1.335 2.9892-2.989 2.9892h-9.287c-1.654 0-2.989-1.3352-2.989-2.9892v-41.4699c0-9.396-4.553-15.8526-15.115-15.8526-9.247 0-16.291 5.7193-18.344 14.089v43.2335c0 1.654-1.335 2.9892-2.989 2.9892h-9.286c-1.654 0-2.989-1.3352-2.989-2.9892v-51.5932c0-3.3778-1.764-4.8425-4.693-4.8425-.289 0-.568.01-.837.0299-1.654.1096-3.089-1.116-3.209-2.7799l-.498-7.453c-.09-1.395.797-2.6604 2.142-3.0689 1.764-.5481 3.886-.9566 7.095-.9566 8.22 0 13.351 3.9657 14.826 10.5618 4.404-6.4566 12.036-11.4486 23.037-11.4486 11.02 0 18.801 4.5535 22.757 12.6243z"/><path clip-rule="evenodd" d="m352.878 86.9492c1.395 0 2.889-.2988 4.284-.6973 1.594-.4982 3.287.3985 3.785 1.9924l1.594 5.2801c.399 1.3948-.199 2.7895-1.394 3.4869-3.786 1.9925-7.871 2.9887-11.656 2.9887-8.668 0-16.04-5.1805-17.136-15.1429-5.28 9.9624-15.143 15.1429-27.695 15.1429-22.715 0-35.367-17.6335-35.367-37.8572s12.354-38.455 35.167-38.455c12.454 0 21.719 5.1805 26.401 14.047v-9.265c0-1.6936 1.295-2.9887 2.989-2.9887h8.169c1.693 0 2.989 1.2951 2.989 2.9887v49.8121c0 5.9775 3.686 8.6673 7.87 8.6673zm-69.239-25.1053c0 14.844 9.365 25.2049 23.312 25.2049 13.748 0 23.611-10.2613 23.611-25.2049s-9.664-25.2049-23.81-25.2049c-15.143 0-23.113 11.5564-23.113 25.2049z" fill-rule="evenodd"/></g></svg>